<svg width="640" height="380" xmlns="http://www.w3.org/2000/svg" version="1.1">
    <defs>
        <marker id="mArrow" markerHeight="13" markerWidth="13" orient="auto" refX="10" refY="6"
                markerUnits="strokeWidth">
            <path d="M2,2 L2,10 L10,6 L2,2 Z" style="stroke: black; fill: black"/>
        </marker>

        <marker id="mArrowQ" markerHeight="13" markerWidth="13" orient="auto" refX="10" refY="6"
                markerUnits="strokeWidth">
            <path d="M2,2 L2,10 L10,6 L2,2 Z" style="stroke: #aaa; fill: #aaa"/>
        </marker>
    </defs>

    <!-- input signal level one -->
    <path id="signal" d="M 20 60 h 20 v -40 h 20 v 40 h 90 v -40 h 60 v 40 h 420 "
          stroke="black"
          stroke-width="1"
          fill="none"/>

    <path id="timeline-in" d="M 20 100 h 610 "
          stroke-dasharray="1,2"
          stroke="#aaa"
          stroke-width="1"
          fill="none"/>

    <!-- insert input events -->


    <!-- input arrow -->

    <g stroke="black" stroke-width="1" stroke-dasharray="1,5" fill="black">
        <path id="e-down-arr" d="M 40 100 v 35 " style="marker-end: url(&quot;#mArrow&quot;"/>
        <path id="e-up-arr" d="M 60 100 v 35 " style="marker-end: url(&quot;#mArrow&quot;"/>

        <path id="t-down-arr" d="M 150 100 v 35 " style="marker-end: url(&quot;#mArrow&quot;"/>
        <path id="t-up-arr" d="M 210 100 v 35 " style="marker-end: url(&quot;#mArrow&quot;"/>
    </g>


    <g transform="translate(0,30)">

        <!-- vertical survivor and pass trough guides event guides -->

        <g stroke="#aaa" stroke-width="1" stroke-dasharray="1,5" fill="#aaa">
            <path id="e-down-guide" d="M 40 115 v 130 " style="marker-end: url(&quot;#mArrowQ&quot;"/>
            <path id="e-up-guide" d="M 60 115 v 130 " style="marker-end: url(&quot;#mArrowQ&quot;"/>

            <path id="e-ls-guide" d="M 120 140 v 105 " style="marker-end: url(&quot;#mArrowQ&quot;"/>
            <!--<path id="e-ws-guide" d="M 200 140 v 40 " style="marker-end: url(&quot;#mArrowQ&quot;"/>-->
            <!--<path id="e-ss-guide" d="M 460 150 v 30 " style="marker-end: url(&quot;#mArrowQ&quot;"/>-->

            <path id="t-down-guide" d="M 150 115 v 130 " style="marker-end: url(&quot;#mArrowQ&quot;"/>
            <path id="t-up-guide" d="M 210 115 v 130 " style="marker-end: url(&quot;#mArrowQ&quot;"/>

            <path id="t-ls-guide" d="M 270 190 v 55 " style="marker-end: url(&quot;#mArrowQ&quot;"/>
            <path id="t-ws-guide" d="M 350 200 v 45 " style="marker-end: url(&quot;#mArrowQ&quot;"/>
            <path id="t-ss-guide" d="M 610 210 v 35 " style="marker-end: url(&quot;#mArrowQ&quot;"/>
        </g>


        <!-- combinator box -->

        <rect x="25" y="110" height="140" width="600"
              style="stroke:#000000; fill: transparent"/>

        <!-- scheduled evebts -->

        <path id="ls-e" d="M 60 130 v 10 h 60 "
              stroke="black" stroke-width="1" style="marker-end: url(&quot;#mArrow&quot;);"
              fill="none"/>

        <path id="ws-e" d="M 60 140 v 10 h 140 "
              stroke="black" stroke-width="1" style="marker-end: url(&quot;#mArrow&quot;);"
              fill="none"/>

        <path id="ss-e" d="M 60 150 v 10 h 400 "
              stroke="black" stroke-width="1" style="marker-end: url(&quot;#mArrow&quot;);"
              fill="none"/>

        <path id="ls-t" d="M 210 180 v 10 h 60 "
              stroke="black" stroke-width="1" style="marker-end: url(&quot;#mArrow&quot;);"
              fill="none"/>

        <path id="ws-t" d="M 210 190 v 10 h 140 "
              stroke="black" stroke-width="1" style="marker-end: url(&quot;#mArrow&quot;);"
              fill="none"/>

        <path id="ss-t" d="M 210 200 v 10 h 400 "
              stroke="black" stroke-width="1" style="marker-end: url(&quot;#mArrow&quot;);"
              fill="none"/>

    </g>

    <!-- out arrow -->

    <g stroke="black" stroke-width="1" stroke-dasharray="1,5" fill="black">
        <path id="e-down-out" d="M 40 280 v 35 " style="marker-end: url(&quot;#mArrow&quot;"/>
        <path id="e-up-out" d="M 60 280 v 35 " style="marker-end: url(&quot;#mArrow&quot;"/>

        <path id="e-ls-out" d="M 120 280 v 35 " style="marker-end: url(&quot;#mArrow&quot;"/>

        <path id="t-down-out" d="M 150 280 v 35 " style="marker-end: url(&quot;#mArrow&quot;"/>
        <path id="t-up-out" d="M 210 280 v 35 " style="marker-end: url(&quot;#mArrow&quot;"/>

        <path id="t-ls-out" d="M 270 280 v 35 " style="marker-end: url(&quot;#mArrow&quot;"/>
        <path id="t-ws-out" d="M 350 280 v 35 " style="marker-end: url(&quot;#mArrow&quot;"/>
        <path id="t-ws-out" d="M 610 280 v 35 " style="marker-end: url(&quot;#mArrow&quot;"/>
    </g>


    <path id="timeline-out" d="M 20 340 h 620 "
          stroke-dasharray="1,2"
          stroke="#aaa"
          stroke-width="1"
          fill="none"/>


    <!--<line x1="6" x2="634" y1="50" y2="50" style="stroke-width: 3; stroke: blue;"></line>-->
    <!--<line x1="6" x2="634" y1="250" y2="250" style="stroke-width: 3; stroke: orange;"></line>-->
    <!--<rect x="7" y="122.5" height="65" width="626" rx="1" ry="1"-->
    <!--style="fill: white; stroke-width: 3; stroke: blue;"></rect>-->
    <!--<text x="320" y="161" font-family="sans-serif" font-size="24px" font-weight="bold" text-anchor="middle">ObserveOn(orange)</text>-->
    <!--<circle cx="75" cy="50" r="22" style="fill: white; stroke-width: 3; stroke: black;"></circle>-->

</svg>
