<svg width="640" height="320" xmlns="http://www.w3.org/2000/svg" version="1.1">
    <defs>
        <marker id="mArrow" markerHeight="13" markerWidth="13" orient="auto" refX="10" refY="6">
            <path d="M2,2 L2,10 L10,6 L2,2 Z" style="stroke: orange; fill: orange"></path>
        </marker>
        <marker id="mArrow2" markerHeight="13" markerWidth="13" orient="auto" refX="10" refY="6">
            <path d="M2,2 L2,10 L10,6 L2,2 Z" style="stroke: blue; fill: blue"></path>
        </marker>
    </defs>
    <line x1="6" x2="634" y1="50" y2="50" style="stroke-width: 3; stroke: blue;"></line>
    <line x1="6" x2="634" y1="250" y2="250" style="stroke-width: 3; stroke: orange;"></line>
    <rect x="7" y="122.5" height="65" width="626" rx="1" ry="1"
          style="fill: white; stroke-width: 3; stroke: blue;"></rect>
    <text x="320" y="161" font-family="sans-serif" font-size="24px" font-weight="bold" text-anchor="middle">ObserveOn(orange)</text>
    <circle cx="75" cy="50" r="22" style="fill: white; stroke-width: 3; stroke: black;"></circle>
    <g>
        <path d="M75,73L75,120" stroke-dasharray="2,7"
              style="stroke-width: 1; stroke: blue; marker-end: url(&quot;#mArrow2&quot;);"></path>
    </g>
    <circle cx="75" cy="250" r="22" style="fill: white; stroke-width: 3; stroke: black;"></circle>
    <g>
        <path d="M75,190L75,227" stroke-dasharray="2,7"
              style="stroke-width: 1; stroke: orange; marker-end: url(&quot;#mArrow&quot;);"></path>
    </g>
    <circle cx="125" cy="50" r="22" style="fill: blue; stroke-width: 3; stroke: black;"></circle>
    <g>
        <path d="M125,73L125,120" stroke-dasharray="2,7"
              style="stroke-width: 1; stroke: blue; marker-end: url(&quot;#mArrow2&quot;);"></path>
    </g>
    <circle cx="125" cy="250" r="22" style="fill: blue; stroke-width: 3; stroke: black;"></circle>
    <g>
        <path d="M125,190L125,227" stroke-dasharray="2,7"
              style="stroke-width: 1; stroke: orange; marker-end: url(&quot;#mArrow&quot;);"></path>
    </g>
    <circle cx="175" cy="50" r="22" style="fill: green; stroke-width: 3; stroke: black;"></circle>
    <g>
        <path d="M175,73L175,120" stroke-dasharray="2,7"
              style="stroke-width: 1; stroke: blue; marker-end: url(&quot;#mArrow2&quot;);"></path>
    </g>
    <circle cx="175" cy="250" r="22" style="fill: green; stroke-width: 3; stroke: black;"></circle>
    <g>
        <path d="M175,190L175,227" stroke-dasharray="2,7"
              style="stroke-width: 1; stroke: orange; marker-end: url(&quot;#mArrow&quot;);"></path>
    </g>
    <circle cx="225" cy="50" r="22" style="fill: yellow; stroke-width: 3; stroke: black;"></circle>
    <g>
        <path d="M225,73L225,120" stroke-dasharray="2,7"
              style="stroke-width: 1; stroke: blue; marker-end: url(&quot;#mArrow2&quot;);"></path>
    </g>
    <circle cx="225" cy="250" r="22" style="fill: yellow; stroke-width: 3; stroke: black;"></circle>
    <g>
        <path d="M225,190L225,227" stroke-dasharray="2,7"
              style="stroke-width: 1; stroke: orange; marker-end: url(&quot;#mArrow&quot;);"></path>
    </g>
    <circle cx="275" cy="50" r="22" style="fill: orange; stroke-width: 3; stroke: black;"></circle>
    <g>
        <path d="M275,73L275,120" stroke-dasharray="2,7"
              style="stroke-width: 1; stroke: blue; marker-end: url(&quot;#mArrow2&quot;);"></path>
    </g>
    <circle cx="275" cy="250" r="22" style="fill: orange; stroke-width: 3; stroke: black;"></circle>
    <g>
        <path d="M275,190L275,227" stroke-dasharray="2,7"
              style="stroke-width: 1; stroke: orange; marker-end: url(&quot;#mArrow&quot;);"></path>
    </g>
    <circle cx="325" cy="50" r="22" style="fill: red; stroke-width: 3; stroke: black;"></circle>
    <g>
        <path d="M325,73L325,120" stroke-dasharray="2,7"
              style="stroke-width: 1; stroke: blue; marker-end: url(&quot;#mArrow2&quot;);"></path>
    </g>
    <circle cx="325" cy="250" r="22" style="fill: red; stroke-width: 3; stroke: black;"></circle>
    <g>
        <path d="M325,190L325,227" stroke-dasharray="2,7"
              style="stroke-width: 1; stroke: orange; marker-end: url(&quot;#mArrow&quot;);"></path>
    </g>
    <circle cx="375" cy="50" r="22" style="fill: magenta; stroke-width: 3; stroke: black;"></circle>
    <g>
        <path d="M375,73L375,120" stroke-dasharray="2,7"
              style="stroke-width: 1; stroke: blue; marker-end: url(&quot;#mArrow2&quot;);"></path>
    </g>
    <circle cx="375" cy="250" r="22" style="fill: magenta; stroke-width: 3; stroke: black;"></circle>
    <g>
        <path d="M375,190L375,227" stroke-dasharray="2,7"
              style="stroke-width: 1; stroke: orange; marker-end: url(&quot;#mArrow&quot;);"></path>
    </g>
    <circle cx="425" cy="50" r="22" style="fill: cyan; stroke-width: 3; stroke: black;"></circle>
    <g>
        <path d="M425,73L425,120" stroke-dasharray="2,7"
              style="stroke-width: 1; stroke: blue; marker-end: url(&quot;#mArrow2&quot;);"></path>
    </g>
    <circle cx="425" cy="250" r="22" style="fill: cyan; stroke-width: 3; stroke: black;"></circle>
    <g>
        <path d="M425,190L425,227" stroke-dasharray="2,7"
              style="stroke-width: 1; stroke: orange; marker-end: url(&quot;#mArrow&quot;);"></path>
    </g>
    <circle cx="475" cy="50" r="22" style="fill: brown; stroke-width: 3; stroke: black;"></circle>
    <g>
        <path d="M475,73L475,120" stroke-dasharray="2,7"
              style="stroke-width: 1; stroke: blue; marker-end: url(&quot;#mArrow2&quot;);"></path>
    </g>
    <circle cx="475" cy="250" r="22" style="fill: brown; stroke-width: 3; stroke: black;"></circle>
    <g>
        <path d="M475,190L475,227" stroke-dasharray="2,7"
              style="stroke-width: 1; stroke: orange; marker-end: url(&quot;#mArrow&quot;);"></path>
    </g>
    <circle cx="525" cy="50" r="22" style="fill: black; stroke-width: 3; stroke: black;"></circle>
    <g>
        <path d="M525,73L525,120" stroke-dasharray="2,7"
              style="stroke-width: 1; stroke: blue; marker-end: url(&quot;#mArrow2&quot;);"></path>
    </g>
    <circle cx="525" cy="250" r="22" style="fill: black; stroke-width: 3; stroke: black;"></circle>
    <g>
        <path d="M525,190L525,227" stroke-dasharray="2,7"
              style="stroke-width: 1; stroke: orange; marker-end: url(&quot;#mArrow&quot;);"></path>
    </g>
    <line x1="575" x2="575" y1="30" y2="70" style="stroke-width: 3; stroke: black;"></line>
    <g>
        <path d="M575,73L575,120" stroke-dasharray="2,7"
              style="stroke-width: 1; stroke: blue; marker-end: url(&quot;#mArrow2&quot;);"></path>
    </g>
    <line x1="575" x2="575" y1="230" y2="270" style="stroke-width: 3; stroke: black;"></line>
    <g>
        <path d="M575,190L575,227" stroke-dasharray="2,7"
              style="stroke-width: 1; stroke: orange; marker-end: url(&quot;#mArrow&quot;);"></path>
    </g>
</svg>